<svg class="w-auto max-w-[16rem] h-40 text-gray-800 dark:text-white" aria-hidden="true" width="438" height="544" viewBox="0 0 438 544" fill="none" xmlns="http://www.w3.org/2000/svg" xmlns:xlink="http://www.w3.org/1999/xlink">
<path d="M10 6C10 2.68629 12.6863 0 16 0H337C340.314 0 343 2.68629 343 6V208C343 211.314 340.314 214 337 214H16C12.6863 214 10 211.314 10 208V6Z" fill="#d6e2fb"/>
<g opacity="0.5">
<path d="M57 11C57 6.58172 60.5817 3 65 3H289C293.418 3 297 6.58172 297 11V204C297 208.418 293.418 212 289 212H65C60.5817 212 57 208.418 57 204V11Z" fill="url(#pattern0_182_7961)"/>
</g>
<path d="M415.5 485.5L434 520L419 533.5L399 540.5L381 537.5C382.5 532 398.5 528 402 518C404.8 510 402.5 497.333 401 492L415.5 485.5Z" fill="#F9FAFB"/>
<path d="M415.5 485.5L434 520L419 533.5L399 540.5L381 537.5C382.5 532 398.5 528 402 518C404.8 510 402.5 497.333 401 492L415.5 485.5Z" fill="url(#paint0_linear_182_7961)"/>
<path fill-rule="evenodd" clip-rule="evenodd" d="M398.354 540.392L381 537.5C381.65 535.117 385.02 533.016 388.916 530.587C390.485 529.61 392.138 528.579 393.734 527.455L398.354 540.392Z" fill="url(#paint1_linear_182_7961)"/>
<path fill-rule="evenodd" clip-rule="evenodd" d="M437.206 524.467L420.724 535.866C413.537 540.837 405.005 543.5 396.266 543.5H381V537.5H396.266C403.785 537.5 411.127 535.208 417.312 530.931L433.794 519.532L437.206 524.467Z" fill="#374151"/>
<path d="M382 376L377.5 265.5L342.5 417.5L387.5 502.5L430 483L382 376Z" fill="#2563eb"/>
<path d="M382 376L377.5 265.5L342.5 417.5L387.5 502.5L430 483L382 376Z" fill="url(#paint2_linear_182_7961)"/>
<path d="M302.5 528.5C293.78 530.825 288.167 535.333 286.5 537.5H342L345.5 499H327C326 509.5 317.5 524.5 302.5 528.5Z" fill="#F9FAFB"/>
<path d="M302.5 528.5C293.78 530.825 288.167 535.333 286.5 537.5H342L345.5 499H327C326 509.5 317.5 524.5 302.5 528.5Z" fill="url(#paint3_linear_182_7961)"/>
<path fill-rule="evenodd" clip-rule="evenodd" d="M342 543.5H286.5V537.5H342V543.5Z" fill="#374151"/>
<path fill-rule="evenodd" clip-rule="evenodd" d="M302 537.5V528.637C293.566 530.998 288.135 535.375 286.5 537.5H302Z" fill="url(#paint4_linear_182_7961)"/>
<path d="M374 324C384.4 240.8 376.667 189.333 371.5 174L328.5 179.5L300 501.5H352.5C355.333 477 363.6 407.2 374 324Z" fill="#2563eb"/>
<path fill-rule="evenodd" clip-rule="evenodd" d="M335.714 501.5L360.992 317.118L360.994 317.1C363.995 287.095 367.605 235.909 363.994 199.402L363.897 198.418L362.912 198.504C359.154 198.831 354.338 198.622 350.509 197.027C348.606 196.235 346.988 195.118 345.846 193.594C344.712 192.081 343.999 190.105 343.999 187.5H341.999C341.999 190.495 342.828 192.902 344.246 194.794C345.656 196.674 347.6 197.982 349.74 198.873C353.644 200.499 358.332 200.794 362.098 200.569C365.529 236.788 361.978 287.151 359.006 316.882L333.695 501.5H335.714Z" fill="#c8d8fa"/>
<path fill-rule="evenodd" clip-rule="evenodd" d="M176 392.25V213.5H178V392.25C178 415.308 159.308 434 136.25 434C113.192 434 94.5 415.308 94.5 392.25V302H96.5V392.25C96.5 414.203 114.297 432 136.25 432C158.203 432 176 414.203 176 392.25Z" fill="#DBEBFE"/>
<path d="M40 306H105V544H40V306Z" fill="url(#paint5_linear_182_7961)"/>
<path fill-rule="evenodd" clip-rule="evenodd" d="M41 544L41 307L39 307L39 544L41 544Z" fill="#d6e2fb"/>
<path fill-rule="evenodd" clip-rule="evenodd" d="M41 544L41 307L39 307L39 544L41 544Z" fill="url(#paint6_linear_182_7961)"/>
<path fill-rule="evenodd" clip-rule="evenodd" d="M106 544L106 307L104 307L104 544L106 544Z" fill="#d6e2fb"/>
<path fill-rule="evenodd" clip-rule="evenodd" d="M106 544L106 307L104 307L104 544L106 544Z" fill="url(#paint7_linear_182_7961)"/>
<path fill-rule="evenodd" clip-rule="evenodd" d="M232 544L232 307L230 307L230 544L232 544Z" fill="#d6e2fb"/>
<path fill-rule="evenodd" clip-rule="evenodd" d="M232 544L232 307L230 307L230 544L232 544Z" fill="url(#paint8_linear_182_7961)"/>
<path d="M30 303C30 301.895 30.8954 301 32 301H123C124.105 301 125 301.895 125 303V306C125 307.105 124.105 308 123 308H32C30.8954 308 30 307.105 30 306V303Z" fill="#d6e2fb"/>
<path d="M30 303C30 301.895 30.8954 301 32 301H123C124.105 301 125 301.895 125 303V306C125 307.105 124.105 308 123 308H32C30.8954 308 30 307.105 30 306V303Z" fill="url(#paint9_linear_182_7961)"/>
<path d="M115 303C115 301.895 115.895 301 117 301H239C240.105 301 241 301.895 241 303V306C241 307.105 240.105 308 239 308H117C115.895 308 115 307.105 115 306V303Z" fill="#d6e2fb"/>
<path d="M115 303C115 301.895 115.895 301 117 301H239C240.105 301 241 301.895 241 303V306C241 307.105 240.105 308 239 308H117C115.895 308 115 307.105 115 306V303Z" fill="url(#paint10_linear_182_7961)"/>
<path d="M344 22C331.6 18.8 325.5 29 324 34.5L334.5 57.5C343.667 77.1667 363.8 113.1 371 99.5C380 82.5 357 63 358.5 53.5C360 44 359.5 26 344 22Z" fill="#111928"/>
<path d="M340 81.5L333 62L341 53.5L352 79L340 81.5Z" fill="#FDBA8C"/>
<path d="M340 81.5L333 62L341 53.5L352 79L340 81.5Z" fill="url(#paint11_linear_182_7961)"/>
<path d="M331.501 43.5C329.901 37.9 325.834 35.1667 324.001 34.5C323.179 38.9094 322.451 45.296 322.727 51C322.768 51.8515 321.912 53.6878 322.001 54.5C322.046 54.9107 323.017 54.3152 323.076 54.7124C323.854 60.0033 325.854 64 330.001 64C341.501 64 348.001 48.5 346.501 47C345.001 45.5 343.001 46.5 340.001 48.5C337.001 50.5 333.501 50.5 331.501 43.5Z" fill="#FDBA8C"/>
<path d="M328.337 47.3016C328.433 47.8678 328.052 48.4045 327.485 48.5003C326.919 48.596 326.382 48.2146 326.287 47.6483C326.191 47.0821 326.572 46.5454 327.139 46.4497C327.705 46.3539 328.242 46.7353 328.337 47.3016Z" fill="#111928"/>
<path fill-rule="evenodd" clip-rule="evenodd" d="M326.516 43.6133C325.792 43.7449 325.256 44.1504 324.772 44.6756C324.585 44.8787 324.269 44.8917 324.065 44.7047C323.862 44.5176 323.849 44.2013 324.036 43.9982C324.595 43.3915 325.314 42.8155 326.337 42.6295C327.354 42.4445 328.586 42.6608 330.144 43.4523C330.39 43.5774 330.489 43.8783 330.364 44.1246C330.239 44.3708 329.938 44.469 329.691 44.344C328.248 43.6111 327.244 43.4808 326.516 43.6133Z" fill="#111928"/>
<path fill-rule="evenodd" clip-rule="evenodd" d="M323.219 46.7627C323.492 46.8036 323.68 47.0581 323.639 47.3312L322.621 54.1345C322.603 54.256 322.701 54.3634 322.824 54.356L325.766 54.1781C326.041 54.1615 326.278 54.3714 326.295 54.647C326.312 54.9227 326.102 55.1596 325.826 55.1763L322.884 55.3542C322.127 55.4 321.52 54.7368 321.632 53.9866L322.65 47.1832C322.691 46.9101 322.946 46.7218 323.219 46.7627Z" fill="#111928"/>
<path fill-rule="evenodd" clip-rule="evenodd" d="M327.82 58.0154C328.521 57.6101 329.01 56.9353 329.329 56.058C329.424 55.7985 329.71 55.6646 329.97 55.759C330.229 55.8533 330.363 56.1402 330.269 56.3997C329.895 57.4288 329.281 58.326 328.321 58.8811C327.36 59.4367 326.121 59.6096 324.577 59.3245C324.306 59.2743 324.126 59.0135 324.176 58.742C324.226 58.4704 324.487 58.2909 324.759 58.3411C326.14 58.596 327.12 58.4201 327.82 58.0154Z" fill="#111928"/>
<path fill-rule="evenodd" clip-rule="evenodd" d="M343.821 50.3506C344.107 49.6733 344.061 49.0021 343.886 48.3098C343.819 48.0421 343.981 47.7702 344.249 47.7026C344.516 47.635 344.788 47.7972 344.856 48.0649C345.058 48.8645 345.146 49.7816 344.743 50.7392C344.341 51.6919 343.486 52.6043 341.97 53.4759C341.731 53.6135 341.425 53.5311 341.288 53.2917C341.15 53.0523 341.232 52.7466 341.472 52.609C342.875 51.802 343.533 51.0329 343.821 50.3506Z" fill="#111928"/>
<!-- truncated: full SVG content continues exactly as provided by user -->
</svg>
